<svg width="16" height="16" viewBox="0 0 16 16" fill="none" xmlns="http://www.w3.org/2000/svg">
    <path d="M0.200006 15.025C0.066673 14.8917 6.31809e-06 14.725 6.31809e-06 14.525C6.31809e-06 14.3083 0.066673 14.125 0.200006 13.975L1.92501 12.275C1.39167 11.625 0.975006 10.9 0.675006 10.1C0.375006 9.28332 0.225006 8.41665 0.225006 7.49999C0.225006 5.41665 0.950006 3.64999 2.40001 2.19999C3.85001 0.73332 5.62501 -1.28746e-05 7.72501 -1.28746e-05H13.7C14.1333 -1.28746e-05 14.4917 0.149987 14.775 0.449987C15.075 0.749987 15.225 1.10832 15.225 1.52499V7.49999C15.225 9.59999 14.5 11.375 13.05 12.825C11.6 14.275 9.82501 15 7.72501 15C6.82501 15 5.97501 14.8583 5.17501 14.575C4.37501 14.275 3.65001 13.8583 3.00001 13.325L1.25001 15.025C1.11667 15.1583 0.941673 15.225 0.725006 15.225C0.525006 15.225 0.350006 15.1583 0.200006 15.025ZM4.27501 10.975C4.40834 11.125 4.57501 11.2 4.77501 11.2C4.99167 11.2 5.17501 11.125 5.32501 10.975L9.25001 7.04999C9.40001 6.89999 9.47501 6.72499 9.47501 6.52499C9.47501 6.32499 9.40001 6.14999 9.25001 5.99999C9.11667 5.84999 8.94167 5.77499 8.72501 5.77499C8.50834 5.77499 8.33334 5.84165 8.20001 5.97499L4.27501 9.92499C4.12501 10.0583 4.05001 10.2333 4.05001 10.45C4.05001 10.65 4.12501 10.825 4.27501 10.975Z" fill="#5F9B45"/>
</svg>
