<svg width="17" height="19" viewBox="0 0 17 19" fill="none" xmlns="http://www.w3.org/2000/svg">
    <path d="M5.25 18.875C4.83333 18.875 4.45833 18.75 4.125 18.5C3.80833 18.2333 3.59167 17.8917 3.475 17.475L2.375 13.125H14.6L13.5 17.475C13.3833 17.8917 13.1583 18.2333 12.825 18.5C12.5083 18.75 12.1417 18.875 11.725 18.875H5.25ZM8.5 5.425C8.55 4.05833 9.04167 2.88333 9.975 1.9C10.9083 0.9 12.0583 0.274999 13.425 0.0249982C13.4917 0.00833178 13.5583 0.0166655 13.625 0.0499992C13.6917 0.0666656 13.75 0.099999 13.8 0.149999C13.8667 0.199999 13.9083 0.258333 13.925 0.324999C13.9583 0.391666 13.9667 0.466666 13.95 0.549999C13.7167 1.75 13.175 2.8 12.325 3.7C11.475 4.58333 10.45 5.13333 9.25 5.35V7.625H16.1C16.35 7.625 16.5583 7.71667 16.725 7.9C16.9083 8.06667 17 8.28333 17 8.55V10.375C17 10.8917 16.8167 11.3333 16.45 11.7C16.1 12.05 15.6667 12.225 15.15 12.225H1.85C1.33333 12.225 0.891667 12.05 0.525 11.7C0.175 11.3333 2.38419e-07 10.8917 2.38419e-07 10.375V8.55C2.38419e-07 8.28333 0.0833336 8.06667 0.25 7.9C0.433334 7.71667 0.65 7.625 0.9 7.625H7.75V5.35C6.53333 5.13333 5.5 4.58333 4.65 3.7C3.8 2.8 3.26667 1.75 3.05 0.549999C3.03333 0.466666 3.03333 0.391666 3.05 0.324999C3.06667 0.258333 3.10833 0.199999 3.175 0.149999C3.24167 0.099999 3.30833 0.0666656 3.375 0.0499992C3.44167 0.0166655 3.50833 0.00833178 3.575 0.0249982C4.94167 0.274999 6.08333 0.9 7 1.9C7.91667 2.9 8.41667 4.075 8.5 5.425Z" fill="#5F9B45"/>
</svg>
