<svg width="15" height="18" viewBox="0 0 15 18" fill="none" xmlns="http://www.w3.org/2000/svg">
    <path d="M5.975 13.95H1.075C0.724997 13.95 0.458331 13.7917 0.274997 13.475C0.091664 13.1583 0.108331 12.85 0.324997 12.55L3.4 7.95H3.15C2.78333 7.95 2.50833 7.79167 2.325 7.475C2.15833 7.14167 2.18333 6.825 2.4 6.525L6.7 0.375C6.8 0.241666 6.91666 0.15 7.05 0.0999994C7.18333 0.0333328 7.31666 -4.76837e-07 7.45 -4.76837e-07C7.58333 -4.76837e-07 7.71666 0.0333328 7.85 0.0999994C7.98333 0.15 8.1 0.241666 8.2 0.375L12.5 6.525C12.7167 6.825 12.7333 7.14167 12.55 7.475C12.3833 7.79167 12.1167 7.95 11.75 7.95H11.5L14.575 12.55C14.7917 12.85 14.8083 13.1583 14.625 13.475C14.4417 13.7917 14.175 13.95 13.825 13.95H8.925V17.075C8.925 17.325 8.84166 17.5333 8.675 17.7C8.50833 17.8667 8.3 17.95 8.05 17.95H6.875C6.625 17.95 6.40833 17.8667 6.225 17.7C6.05833 17.5167 5.975 17.3 5.975 17.05V13.95Z" fill="#5F9B45"/>
</svg>
