<svg width="19" height="17" viewBox="0 0 19 17" fill="none" xmlns="http://www.w3.org/2000/svg">
    <path d="M9.5 16.55C9.28333 16.55 9.06667 16.5166 8.85 16.45C8.63333 16.3666 8.44167 16.2416 8.275 16.075L6.85 14.775C5.06667 13.1583 3.475 11.575 2.075 10.025C0.691667 8.45831 1.19209e-07 6.78331 1.19209e-07 4.99997C1.19209e-07 3.58331 0.475 2.39997 1.425 1.44997C2.39167 0.483308 3.58333 -2.52724e-05 5 -2.52724e-05C5.8 -2.52724e-05 6.59167 0.191641 7.375 0.574975C8.175 0.941641 8.88333 1.54164 9.5 2.37497C10.1167 1.54164 10.8167 0.941641 11.6 0.574975C12.4 0.191641 13.2 -2.52724e-05 14 -2.52724e-05C15.4167 -2.52724e-05 16.6 0.483308 17.55 1.44997C18.5167 2.39997 19 3.58331 19 4.99997C19 6.79997 18.2917 8.49164 16.875 10.075C15.4583 11.6416 13.875 13.2166 12.125 14.8L10.725 16.075C10.5583 16.2416 10.3583 16.3666 10.125 16.45C9.90833 16.5166 9.7 16.55 9.5 16.55Z" fill="#A6AAB3"/>
</svg>
