<svg width="19" height="19" viewBox="0 0 19 19" fill="none" xmlns="http://www.w3.org/2000/svg">
    <path d="M8.65 4C8.53333 4 8.425 3.95833 8.325 3.875C8.24167 3.79167 8.2 3.68333 8.2 3.55V2C8.2 1.45 8.39167 0.983332 8.775 0.599998C9.15833 0.199999 9.63333 -9.53674e-07 10.2 -9.53674e-07H11.75C11.8667 -9.53674e-07 11.9667 0.0499992 12.05 0.15C12.15 0.233333 12.2 0.333333 12.2 0.449999V2C12.2 2.56667 12 3.04167 11.6 3.425C11.2167 3.80833 10.75 4 10.2 4H8.65ZM3 9.5C2.16667 9.5 1.45833 9.20833 0.874999 8.625C0.291665 8.04167 -1.19209e-06 7.33333 -1.19209e-06 6.5V4.425C-1.19209e-06 4.15833 0.0833321 3.94167 0.249999 3.775C0.433332 3.59167 0.649999 3.5 0.899999 3.5H3C3.83333 3.5 4.54167 3.79167 5.125 4.375C5.70833 4.95833 6 5.66667 6 6.5V8.6C6 8.86667 5.90833 9.08333 5.725 9.25C5.55833 9.41667 5.35 9.5 5.1 9.5H3ZM12.6 18C11.9833 18 11.3917 17.9 10.825 17.7C10.2583 17.5 9.74167 17.225 9.275 16.875L8.125 18.025C7.99167 18.1583 7.81667 18.2333 7.6 18.25C7.4 18.25 7.225 18.175 7.075 18.025C6.925 17.875 6.85 17.7 6.85 17.5C6.86667 17.2833 6.94167 17.1083 7.075 16.975L8.225 15.825C7.875 15.3583 7.6 14.8417 7.4 14.275C7.2 13.7083 7.1 13.1167 7.1 12.5C7.1 10.9667 7.63333 9.66667 8.7 8.6C9.76667 7.51667 11.0667 6.975 12.6 6.975H16.575C17.0083 6.975 17.3667 7.125 17.65 7.425C17.95 7.725 18.1 8.08333 18.1 8.5V12.5C18.1 14.0333 17.5667 15.3333 16.5 16.4C15.4333 17.4667 14.1333 18 12.6 18ZM9.95 15.15C10.1 15.2833 10.275 15.35 10.475 15.35C10.6917 15.35 10.8667 15.2833 11 15.15L13.125 13.025C13.275 12.875 13.35 12.7 13.35 12.5C13.35 12.3 13.275 12.125 13.125 11.975C12.975 11.825 12.8 11.75 12.6 11.75C12.4 11.75 12.225 11.825 12.075 11.975L9.95 14.1C9.81667 14.2333 9.75 14.4083 9.75 14.625C9.75 14.825 9.81667 15 9.95 15.15Z" fill="#A6AAB3"/>
</svg>
