<svg width="19" height="19" viewBox="0 0 19 19" fill="none" xmlns="http://www.w3.org/2000/svg">
    <path d="M6.15 13.425L10.8 12C11.1 11.9167 11.35 11.775 11.55 11.575C11.7667 11.3583 11.9167 11.1 12 10.8L13.425 6.15C13.475 5.98333 13.4333 5.83333 13.3 5.7C13.1667 5.56667 13.0167 5.525 12.85 5.575L8.2 7C7.9 7.08333 7.64167 7.23333 7.425 7.45C7.225 7.65 7.08333 7.9 7 8.2L5.575 12.85C5.525 13.0167 5.56667 13.1667 5.7 13.3C5.83333 13.4333 5.98333 13.475 6.15 13.425ZM9.5 10.8C9.13333 10.8 8.825 10.675 8.575 10.425C8.325 10.175 8.2 9.86667 8.2 9.5C8.2 9.13333 8.325 8.825 8.575 8.575C8.825 8.325 9.13333 8.2 9.5 8.2C9.86667 8.2 10.175 8.325 10.425 8.575C10.675 8.825 10.8 9.13333 10.8 9.5C10.8 9.86667 10.675 10.175 10.425 10.425C10.175 10.675 9.86667 10.8 9.5 10.8ZM9.5 19C8.18333 19 6.94167 18.75 5.775 18.25C4.625 17.75 3.625 17.075 2.775 16.225C1.925 15.375 1.25 14.375 0.75 13.225C0.25 12.0583 1.19209e-07 10.8167 1.19209e-07 9.5C1.19209e-07 8.18333 0.25 6.95 0.75 5.8C1.25 4.63333 1.925 3.625 2.775 2.775C3.625 1.925 4.625 1.25 5.775 0.749999C6.94167 0.249999 8.18333 -9.53674e-07 9.5 -9.53674e-07C10.8167 -9.53674e-07 12.05 0.249999 13.2 0.749999C14.3667 1.25 15.375 1.925 16.225 2.775C17.075 3.625 17.75 4.63333 18.25 5.8C18.75 6.95 19 8.18333 19 9.5C19 10.8167 18.75 12.0583 18.25 13.225C17.75 14.375 17.075 15.375 16.225 16.225C15.375 17.075 14.3667 17.75 13.2 18.25C12.05 18.75 10.8167 19 9.5 19Z" fill="#A6AAB3"/>
</svg>

