<svg width="375" height="160" viewBox="0 0 375 160" fill="none" xmlns="http://www.w3.org/2000/svg">
<rect width="375" height="160" fill="#1F2127"/>
<path d="M64.7871 64.7852H48.5371V62.7441H64.7871V64.7852ZM57.873 63.7988H55.4023V59.2578H57.873V63.7988ZM57.5605 53.125C57.5605 54.2578 57.2643 55.2995 56.6719 56.25C56.0794 57.194 55.2135 57.9818 54.0742 58.6133C52.9414 59.2448 51.584 59.668 50.002 59.8828L49.0742 57.9297C50.4479 57.7604 51.6068 57.4316 52.5508 56.9434C53.5013 56.4486 54.2077 55.8691 54.6699 55.2051C55.1387 54.5345 55.373 53.8411 55.373 53.125V52.7246H57.5605V53.125ZM57.9219 53.125C57.9219 53.8411 58.1562 54.5345 58.625 55.2051C59.0938 55.8691 59.8001 56.4486 60.7441 56.9434C61.6882 57.4316 62.8438 57.7604 64.2109 57.9297L63.3027 59.8828C61.7207 59.668 60.36 59.2448 59.2207 58.6133C58.0814 57.9818 57.209 57.194 56.6035 56.25C55.998 55.2995 55.6953 54.2578 55.6953 53.125V52.7246H57.9219V53.125ZM63.3809 53.457H49.9336V51.4648H63.3809V53.457ZM57.873 52.3047H55.4023V49.248H57.873V52.3047ZM81.6723 64.8242H65.4223V62.7832H81.6723V64.8242ZM74.7387 63.6328H72.2875V59.4141H74.7387V63.6328ZM79.7973 56.0645H69.7777V59.1016H67.2973V54.1113H77.3363V52.1777H67.268V50.1758H79.7973V56.0645ZM80.2172 60.0879H67.2973V58.0664H80.2172V60.0879ZM97.2391 66.7969H94.7098V49.0039H97.2391V66.7969ZM91.9168 50.8789C91.9168 52.7865 91.6596 54.5182 91.1453 56.0742C90.6375 57.6237 89.7749 59.0495 88.5574 60.3516C87.34 61.6471 85.7091 62.7799 83.6648 63.75L82.3563 61.7578C84.0685 60.9505 85.4422 60.0423 86.4773 59.0332C87.5125 58.0241 88.2645 56.8913 88.7332 55.6348C89.202 54.3783 89.4363 52.9395 89.4363 51.3184V50.8789H91.9168ZM90.5789 52.8418H83.3035V50.8789H90.5789V52.8418ZM105.745 62.207H103.265V58.0078H105.745V62.207ZM104.486 50.0781C105.39 50.0781 106.211 50.2637 106.946 50.6348C107.689 51.0059 108.275 51.5234 108.704 52.1875C109.14 52.8451 109.359 53.5938 109.359 54.4336C109.359 55.2734 109.14 56.0254 108.704 56.6895C108.275 57.347 107.689 57.8613 106.946 58.2324C106.211 58.597 105.39 58.7793 104.486 58.7793C103.555 58.7793 102.718 58.597 101.976 58.2324C101.234 57.8613 100.651 57.347 100.228 56.6895C99.8111 56.0254 99.6027 55.2734 99.6027 54.4336C99.6027 53.5938 99.8111 52.8451 100.228 52.1875C100.651 51.5234 101.234 51.0059 101.976 50.6348C102.718 50.2637 103.555 50.0781 104.486 50.0781ZM104.486 52.1875C104.01 52.1875 103.587 52.2786 103.216 52.4609C102.851 52.6367 102.562 52.8939 102.347 53.2324C102.139 53.571 102.034 53.9714 102.034 54.4336C102.034 54.8893 102.139 55.2865 102.347 55.625C102.562 55.9635 102.855 56.224 103.226 56.4062C103.597 56.5885 104.017 56.6797 104.486 56.6797C104.941 56.6797 105.351 56.5885 105.716 56.4062C106.081 56.224 106.367 55.9635 106.575 55.625C106.79 55.2865 106.898 54.8893 106.898 54.4336C106.898 53.9714 106.79 53.5742 106.575 53.2422C106.367 52.9036 106.081 52.6432 105.716 52.4609C105.358 52.2786 104.948 52.1875 104.486 52.1875ZM113.304 66.7969H110.814V49.0039H113.304V66.7969ZM115.716 58.0859H112.542V55.9863H115.716V58.0859ZM98.9777 61.2109C100.612 61.2044 101.937 61.1947 102.952 61.1816C103.974 61.1686 105.107 61.1296 106.351 61.0645C107.601 60.9928 108.773 60.8822 109.866 60.7324L110.023 62.5684C108.883 62.7832 107.695 62.9427 106.458 63.0469C105.221 63.1445 104.049 63.2031 102.943 63.2227C101.836 63.2357 100.625 63.2389 99.3098 63.2324L98.9777 61.2109ZM134.398 59.7461H131.908V49.0039H134.398V59.7461ZM136.801 55.4785H133.695V53.4082H136.801V55.4785ZM134.398 66.6016H122.777V60.5273H134.398V66.6016ZM125.248 64.5996H131.938V62.4805H125.248V64.5996ZM130.844 52.6074H120.287V50.6348H130.844V52.6074ZM125.58 53.1348C126.433 53.1348 127.188 53.2715 127.846 53.5449C128.51 53.8118 129.027 54.1862 129.398 54.668C129.77 55.1497 129.955 55.7064 129.955 56.3379C129.955 56.9694 129.77 57.5293 129.398 58.0176C129.027 58.4993 128.51 58.877 127.846 59.1504C127.188 59.4173 126.433 59.5508 125.58 59.5508C124.714 59.5508 123.946 59.4173 123.275 59.1504C122.611 58.877 122.094 58.4993 121.723 58.0176C121.352 57.5293 121.166 56.9694 121.166 56.3379C121.166 55.7064 121.352 55.1497 121.723 54.668C122.094 54.1862 122.611 53.8118 123.275 53.5449C123.946 53.2715 124.714 53.1348 125.58 53.1348ZM125.58 55.0098C125.176 55.0098 124.825 55.0618 124.525 55.166C124.226 55.2637 123.995 55.4134 123.832 55.6152C123.669 55.8105 123.588 56.0514 123.588 56.3379C123.588 56.6309 123.669 56.8815 123.832 57.0898C123.995 57.2917 124.226 57.4447 124.525 57.5488C124.825 57.653 125.176 57.7083 125.58 57.7148C125.984 57.7083 126.335 57.653 126.635 57.5488C126.934 57.4447 127.169 57.2917 127.338 57.0898C127.507 56.8815 127.592 56.6309 127.592 56.3379C127.592 56.0514 127.504 55.8105 127.328 55.6152C127.159 55.4134 126.924 55.2637 126.625 55.166C126.326 55.0618 125.977 55.0098 125.58 55.0098ZM126.82 51.6992H124.33V48.916H126.82V51.6992ZM141.557 51.0645C141.557 52.6986 141.482 54.1862 141.332 55.5273C141.183 56.8685 140.909 58.1673 140.512 59.4238C140.121 60.6803 139.565 61.8717 138.842 62.998L136.909 61.9727C137.605 60.931 138.133 59.8698 138.491 58.7891C138.855 57.7083 139.103 56.582 139.233 55.4102C139.37 54.2383 139.438 52.8613 139.438 51.2793V51.0645H141.557ZM140.766 53.0664H137.495V51.0645H140.766V53.0664ZM145.532 51.0645C145.532 52.8678 145.473 54.4694 145.356 55.8691C145.239 57.2624 144.982 58.6458 144.584 60.0195C144.187 61.3932 143.601 62.679 142.827 63.877L140.932 62.8418C141.661 61.722 142.205 60.5632 142.563 59.3652C142.921 58.1673 143.155 56.9596 143.266 55.7422C143.377 54.5182 143.432 53.0306 143.432 51.2793V51.0645H145.532ZM144.829 53.0664H142.075V51.0645H144.829V53.0664ZM152.739 66.7969H150.346V49.0039H152.739V66.7969ZM147.27 57.6855H144.672V55.6934H147.27V57.6855ZM149.223 66.0156H146.889V49.4238H149.223V66.0156ZM172.32 66.7969H169.859V49.0039H172.32V66.7969ZM174.956 58.0273H171.773V55.9863H174.956V58.0273ZM168.648 53.6719H158.208V51.6699H168.648V53.6719ZM163.472 54.6582C164.338 54.6582 165.116 54.8405 165.806 55.2051C166.496 55.5632 167.036 56.0645 167.427 56.709C167.824 57.3535 168.023 58.0827 168.023 58.8965C168.023 59.7103 167.824 60.4395 167.427 61.084C167.036 61.7285 166.496 62.2331 165.806 62.5977C165.116 62.9557 164.338 63.1348 163.472 63.1348C162.606 63.1348 161.828 62.9557 161.138 62.5977C160.448 62.2331 159.907 61.7285 159.517 61.084C159.126 60.4395 158.931 59.7103 158.931 58.8965C158.931 58.0827 159.126 57.3535 159.517 56.709C159.907 56.0645 160.448 55.5632 161.138 55.2051C161.828 54.8405 162.606 54.6582 163.472 54.6582ZM163.472 56.6895C163.062 56.6895 162.691 56.7806 162.359 56.9629C162.033 57.1387 161.776 57.3958 161.587 57.7344C161.405 58.0664 161.314 58.4538 161.314 58.8965C161.314 59.3457 161.405 59.7363 161.587 60.0684C161.776 60.4004 162.033 60.6576 162.359 60.8398C162.691 61.0156 163.062 61.1035 163.472 61.1035C163.895 61.1035 164.269 61.0156 164.595 60.8398C164.92 60.6576 165.171 60.4004 165.347 60.0684C165.529 59.7363 165.62 59.3457 165.62 58.8965C165.62 58.4538 165.529 58.0664 165.347 57.7344C165.171 57.3958 164.92 57.1387 164.595 56.9629C164.269 56.7806 163.895 56.6895 163.472 56.6895ZM164.712 52.4316H162.232V49.2871H164.712V52.4316ZM189.625 55.8203H177.193V53.877H189.625V55.8203ZM191.421 59.6777H175.171V57.7246H191.421V59.6777ZM179.683 54.8535H177.193V49.6484H179.683V54.8535ZM189.732 66.4062H177.037V64.3945H189.732V66.4062ZM179.537 64.9707H177.037V61.1328H179.537V64.9707ZM62.5508 90.7676H60.0508V73.0039H62.5508V90.7676ZM65.0605 81.8906H61.9062V79.8398H65.0605V81.8906ZM57.8047 74.8398C57.8047 76.6953 57.541 78.4076 57.0137 79.9766C56.4863 81.5391 55.627 82.9779 54.4355 84.293C53.2441 85.6016 51.6816 86.7344 49.748 87.6914L48.3418 85.7871C49.9368 84.9798 51.2487 84.0684 52.2773 83.0527C53.3125 82.0371 54.084 80.8913 54.5918 79.6152C55.1061 78.3392 55.3633 76.8971 55.3633 75.2891V74.8398H57.8047ZM56.6133 76.8809H49.3379V74.8398H56.6133V76.8809ZM81.6625 83.7949H65.4223V81.8027H81.6625V83.7949ZM79.8852 80.3477H67.3852V78.3555H79.8852V80.3477ZM79.7094 75.6504H69.8656V79.0879H67.3852V73.668H79.7094V75.6504ZM79.973 90.4648H67.3754V88.4629H79.973V90.4648ZM69.8266 88.9902H67.3754V85.1719H69.8266V88.9902ZM91.1844 75.3574C91.1844 76.6465 90.8816 77.8542 90.2762 78.9805C89.6707 80.1068 88.8081 81.0703 87.6883 81.8711C86.575 82.6654 85.2697 83.2122 83.7723 83.5117L82.7078 81.4414C83.9839 81.2005 85.0971 80.7676 86.0477 80.1426C87.0047 79.5176 87.7339 78.7852 88.2352 77.9453C88.743 77.1055 88.9969 76.2428 88.9969 75.3574V74.0879H91.1844V75.3574ZM91.6434 75.3574C91.6434 76.2493 91.894 77.1185 92.3953 77.9648C92.9031 78.8112 93.6355 79.5469 94.5926 80.1719C95.5561 80.7904 96.6824 81.2135 97.9715 81.4414L96.8777 83.5117C95.3934 83.2122 94.0913 82.6686 92.9715 81.8809C91.8582 81.0931 91.0021 80.1361 90.4031 79.0098C89.8042 77.8835 89.5047 76.666 89.5047 75.3574V74.0879H91.6434V75.3574ZM98.5574 88.6191H82.3074V86.5781H98.5574V88.6191ZM114.456 83.0332H112.083V73.0039H114.456V83.0332ZM109.534 79.0293H106.751V77.0371H109.534V79.0293ZM110.941 82.9062H108.597V73.2969H110.941V82.9062ZM101.097 80.6211C102.471 80.6211 103.61 80.5918 104.515 80.5332C105.42 80.4746 106.338 80.3704 107.269 80.2207L107.513 82.1836C106.575 82.3529 105.657 82.4635 104.759 82.5156C103.867 82.5612 102.646 82.584 101.097 82.584H99.8957V80.6211H101.097ZM106.663 75.9434H102.279V81.9492H99.8957V73.9805H106.663V75.9434ZM105.999 79.166H101.566V77.252H105.999V79.166ZM104.779 85.2012H111.986V83.7363H114.456V90.6016H102.308V83.7363H104.779V85.2012ZM111.986 88.5996V87.1348H104.779V88.5996H111.986ZM122.445 81.8125C124.242 81.8125 125.714 81.7832 126.859 81.7246C128.005 81.666 129.145 81.5521 130.277 81.3828L130.473 83.3848C129.32 83.554 128.152 83.668 126.967 83.7266C125.788 83.7852 124.281 83.8145 122.445 83.8145H120.961V81.8125H122.445ZM129.047 79.8789H123.461V83.1309H120.961V77.9746H126.557V76.1973H120.941V74.2051H129.047V79.8789ZM135.277 86.1387H132.797V73.043H135.277V86.1387ZM135.727 90.4941H123.402V88.4824H135.727V90.4941ZM125.873 89.1562H123.402V85.0645H125.873V89.1562ZM133.266 79.4102H129.945V77.3008H133.266V79.4102ZM143.637 76.6855C143.637 77.7467 143.445 78.7396 143.061 79.6641C142.683 80.582 142.11 81.3828 141.342 82.0664C140.58 82.7435 139.643 83.2415 138.53 83.5605L137.338 81.6074C138.276 81.347 139.064 80.9629 139.702 80.4551C140.34 79.9408 140.812 79.3613 141.118 78.7168C141.43 78.0658 141.586 77.3887 141.586 76.6855V76.0117H143.637V76.6855ZM144.086 76.6855C144.086 77.3301 144.246 77.9518 144.565 78.5508C144.884 79.1497 145.362 79.6868 146 80.1621C146.645 80.6374 147.439 80.9987 148.383 81.2461L147.221 83.1602C146.114 82.8737 145.174 82.4115 144.399 81.7734C143.624 81.1354 143.041 80.3802 142.651 79.5078C142.26 78.6289 142.065 77.6882 142.065 76.6855V76.0117H144.086V76.6855ZM147.729 76.8516H137.954V74.8887H147.729V76.8516ZM144.106 75.7871H141.586V73.043H144.106V75.7871ZM152.055 83.7461H149.565V73.043H152.055V83.7461ZM146.01 84.0391C147.267 84.0391 148.351 84.1725 149.262 84.4395C150.174 84.7064 150.877 85.0938 151.371 85.6016C151.866 86.1094 152.114 86.7181 152.114 87.4277C152.114 88.1309 151.866 88.7363 151.371 89.2441C150.877 89.7585 150.17 90.1458 149.252 90.4062C148.341 90.6667 147.26 90.7969 146.01 90.7969C144.76 90.7969 143.673 90.6667 142.748 90.4062C141.83 90.1458 141.124 89.7585 140.629 89.2441C140.141 88.7363 139.897 88.1309 139.897 87.4277C139.897 86.7181 140.141 86.1094 140.629 85.6016C141.124 85.0938 141.83 84.7064 142.748 84.4395C143.673 84.1725 144.76 84.0391 146.01 84.0391ZM146.01 85.9629C145.216 85.9629 144.552 86.0182 144.018 86.1289C143.484 86.2331 143.08 86.3958 142.807 86.6172C142.54 86.832 142.407 87.1022 142.407 87.4277C142.407 87.7467 142.54 88.0169 142.807 88.2383C143.08 88.4531 143.484 88.6191 144.018 88.7363C144.552 88.847 145.216 88.9023 146.01 88.9023C146.811 88.9023 147.482 88.847 148.022 88.7363C148.562 88.6191 148.969 88.4531 149.243 88.2383C149.523 88.0169 149.662 87.7467 149.662 87.4277C149.662 87.1022 149.523 86.832 149.243 86.6172C148.969 86.3958 148.562 86.2331 148.022 86.1289C147.482 86.0182 146.811 85.9629 146.01 85.9629Z" fill="#F3F4F6"/>
<path d="M158.97 74.8594H168.462V77.2812H161.9V80.7188H167.964V83.1309H161.9V86.5781H168.482V89H158.97V74.8594ZM176.255 85.6406H176.392L179.839 74.8594H183.101L178.209 89H174.439L169.556 74.8594H172.808L176.255 85.6406ZM184.303 74.8594H193.795V77.2812H187.232V80.7188H193.297V83.1309H187.232V86.5781H193.814V89H184.303V74.8594ZM207.467 89H204.928L198.717 80.0156H198.61V89H195.68V74.8594H198.258L204.42 83.834H204.547V74.8594H207.467V89ZM208.913 74.8594H220.495V77.2812H216.159V89H213.259V77.2812H208.913V74.8594ZM225.036 84.7715H222.546L222.282 74.8594H225.31L225.036 84.7715ZM223.796 89.1758C223.503 89.1758 223.23 89.1009 222.976 88.9512C222.722 88.7949 222.52 88.5931 222.37 88.3457C222.227 88.0918 222.155 87.8184 222.155 87.5254C222.155 87.2389 222.227 86.972 222.37 86.7246C222.52 86.4707 222.722 86.2721 222.976 86.1289C223.23 85.9857 223.503 85.9141 223.796 85.9141C224.083 85.9141 224.349 85.9857 224.597 86.1289C224.851 86.2721 225.053 86.4707 225.202 86.7246C225.359 86.972 225.437 87.2389 225.437 87.5254C225.437 87.8184 225.359 88.0918 225.202 88.3457C225.053 88.5931 224.851 88.7949 224.597 88.9512C224.349 89.1009 224.083 89.1758 223.796 89.1758Z" fill="#5F9B45"/>
<path d="M51.459 105.253C51.459 105.897 51.3354 106.542 51.0884 107.187C50.8413 107.831 50.5101 108.404 50.0947 108.905C49.6794 109.407 49.2282 109.783 48.7412 110.033L48.2256 109.367C48.6839 109.145 49.1082 108.812 49.4985 108.368C49.8888 107.924 50.2021 107.426 50.4385 106.875C50.6748 106.324 50.793 105.783 50.793 105.253V103.674H51.459V105.253ZM51.6201 105.253C51.6201 105.754 51.7293 106.263 51.9478 106.778C52.1662 107.294 52.4652 107.761 52.8447 108.18C53.2243 108.599 53.6432 108.916 54.1016 109.131L53.6182 109.797C53.124 109.553 52.6729 109.194 52.2646 108.717C51.8564 108.241 51.5342 107.699 51.2979 107.09C51.0615 106.481 50.9434 105.869 50.9434 105.253V103.674H51.6201V105.253ZM53.7686 104.007H48.5693V103.309H53.7686V104.007ZM55.7773 111.87H54.9395V102.32H55.7773V111.87ZM57.3779 106.907H55.584V106.188H57.3779V106.907ZM63.5654 106.467H61.6855V105.747H63.5654V106.467ZM60.5791 105.07C60.5791 105.722 60.4878 106.359 60.3052 106.982C60.1226 107.605 59.8612 108.162 59.521 108.653C59.1808 109.143 58.7816 109.528 58.3232 109.808L57.7861 109.174C58.2158 108.923 58.5918 108.579 58.9141 108.143C59.2363 107.706 59.4834 107.221 59.6553 106.687C59.8271 106.153 59.9131 105.615 59.9131 105.07V103.223H60.5791V105.07ZM60.7295 105.038C60.7295 105.547 60.8101 106.055 60.9712 106.563C61.1323 107.072 61.3651 107.536 61.6694 107.955C61.9738 108.374 62.3301 108.705 62.7383 108.948L62.2549 109.604C61.8037 109.331 61.4152 108.954 61.0894 108.47C60.7635 107.987 60.5146 107.448 60.3428 106.854C60.1709 106.259 60.085 105.654 60.085 105.038V103.223H60.7295V105.038ZM66.0791 111.87H65.2627V102.32H66.0791V111.87ZM64.1025 111.387H63.3076V102.524H64.1025V111.387ZM74.8662 109.485H74.0283V102.331H74.8662V109.485ZM76.3057 106.188H74.5977V105.479H76.3057V106.188ZM73.1152 104.189H67.4219V103.502H73.1152V104.189ZM70.2686 104.716C70.7197 104.716 71.119 104.789 71.4663 104.936C71.8136 105.083 72.084 105.291 72.2773 105.559C72.4707 105.828 72.5674 106.141 72.5674 106.499C72.5674 106.85 72.4707 107.158 72.2773 107.423C72.084 107.688 71.8136 107.894 71.4663 108.041C71.119 108.187 70.7197 108.261 70.2686 108.261C69.8174 108.261 69.4163 108.187 69.0654 108.041C68.7145 107.894 68.4442 107.688 68.2544 107.423C68.0646 107.158 67.9697 106.85 67.9697 106.499C67.9697 106.141 68.0646 105.828 68.2544 105.559C68.4442 105.291 68.7145 105.083 69.0654 104.936C69.4163 104.789 69.8174 104.716 70.2686 104.716ZM70.2686 105.382C69.9749 105.382 69.7135 105.427 69.4844 105.516C69.2552 105.606 69.0798 105.736 68.958 105.908C68.8363 106.08 68.7754 106.277 68.7754 106.499C68.7754 106.721 68.8363 106.914 68.958 107.079C69.0798 107.244 69.2552 107.371 69.4844 107.46C69.7135 107.55 69.9749 107.595 70.2686 107.595C70.5622 107.595 70.8236 107.55 71.0527 107.46C71.2819 107.371 71.4591 107.244 71.5845 107.079C71.7098 106.914 71.7725 106.721 71.7725 106.499C71.7725 106.277 71.7098 106.08 71.5845 105.908C71.4591 105.736 71.2819 105.606 71.0527 105.516C70.8236 105.427 70.5622 105.382 70.2686 105.382ZM70.6875 103.856H69.8496V102.331H70.6875V103.856ZM75.3066 111.666H68.8936V110.957H75.3066V111.666ZM69.7207 111.247H68.8936V108.916H69.7207V111.247ZM82.7295 104.888C82.7295 105.575 82.6131 106.248 82.3804 106.907C82.1476 107.566 81.8289 108.15 81.4243 108.658C81.0197 109.167 80.5667 109.557 80.0654 109.829L79.5283 109.152C79.9938 108.923 80.4163 108.583 80.7959 108.132C81.1755 107.681 81.478 107.169 81.7036 106.596C81.9292 106.023 82.042 105.453 82.042 104.888V103.147H82.7295V104.888ZM82.8691 104.888C82.8691 105.432 82.9801 105.978 83.2021 106.526C83.4242 107.074 83.7249 107.562 84.1045 107.992C84.484 108.422 84.8958 108.748 85.3398 108.97L84.8242 109.646C84.3301 109.382 83.8825 109.004 83.4814 108.513C83.0804 108.023 82.7653 107.46 82.5361 106.827C82.307 106.193 82.1924 105.547 82.1924 104.888V103.147H82.8691V104.888ZM87.0586 111.87H86.2207V102.32H87.0586V111.87ZM88.6592 106.929H86.8652V106.198H88.6592V106.929ZM96.6406 108.486H95.8027V102.32H96.6406V108.486ZM98.0801 105.704H96.4043V104.984H98.0801V105.704ZM93.6221 108.551C94.2666 108.551 94.8234 108.615 95.2925 108.744C95.7616 108.873 96.1214 109.063 96.3721 109.313C96.6227 109.564 96.748 109.861 96.748 110.205C96.748 110.549 96.6227 110.844 96.3721 111.091C96.1214 111.338 95.7616 111.526 95.2925 111.655C94.8234 111.784 94.2666 111.849 93.6221 111.849C92.9775 111.849 92.4207 111.784 91.9517 111.655C91.4826 111.526 91.1227 111.338 90.8721 111.091C90.6214 110.844 90.4961 110.549 90.4961 110.205C90.4961 109.861 90.6214 109.564 90.8721 109.313C91.1227 109.063 91.4826 108.873 91.9517 108.744C92.4207 108.615 92.9775 108.551 93.6221 108.551ZM93.6221 109.217C93.1494 109.217 92.7412 109.254 92.3975 109.33C92.0537 109.405 91.7905 109.518 91.6079 109.668C91.4253 109.818 91.334 109.997 91.334 110.205C91.334 110.406 91.4253 110.581 91.6079 110.731C91.7905 110.882 92.0537 110.996 92.3975 111.075C92.7412 111.154 93.1494 111.193 93.6221 111.193C94.0947 111.193 94.5029 111.154 94.8467 111.075C95.1904 110.996 95.4536 110.884 95.6362 110.737C95.8188 110.59 95.9102 110.413 95.9102 110.205C95.9102 109.997 95.8188 109.818 95.6362 109.668C95.4536 109.518 95.1922 109.405 94.8521 109.33C94.5119 109.254 94.1019 109.217 93.6221 109.217ZM94.8896 104.082H89.1963V103.416H94.8896V104.082ZM92.043 104.576C92.5013 104.576 92.9023 104.646 93.2461 104.786C93.5898 104.925 93.8584 105.122 94.0518 105.376C94.2451 105.631 94.3418 105.926 94.3418 106.263C94.3418 106.599 94.2451 106.895 94.0518 107.149C93.8584 107.403 93.5898 107.6 93.2461 107.74C92.9023 107.879 92.5013 107.949 92.043 107.949C91.5846 107.949 91.1818 107.879 90.8345 107.74C90.4871 107.6 90.2186 107.403 90.0288 107.149C89.839 106.895 89.7441 106.599 89.7441 106.263C89.7441 105.926 89.839 105.631 90.0288 105.376C90.2186 105.122 90.4871 104.925 90.8345 104.786C91.1818 104.646 91.5846 104.576 92.043 104.576ZM92.043 105.21C91.7493 105.21 91.488 105.255 91.2588 105.344C91.0296 105.434 90.8542 105.557 90.7324 105.715C90.6107 105.872 90.5498 106.055 90.5498 106.263C90.5498 106.463 90.6107 106.642 90.7324 106.8C90.8542 106.957 91.0296 107.079 91.2588 107.165C91.488 107.251 91.7493 107.294 92.043 107.294C92.3366 107.294 92.598 107.251 92.8271 107.165C93.0563 107.079 93.2336 106.957 93.3589 106.8C93.4842 106.642 93.5469 106.463 93.5469 106.263C93.5469 106.055 93.4842 105.872 93.3589 105.715C93.2336 105.557 93.0563 105.434 92.8271 105.344C92.598 105.255 92.3366 105.21 92.043 105.21ZM92.4619 103.803H91.624V102.245H92.4619V103.803ZM107.383 108.046H98.6816V107.358H107.383V108.046ZM106.416 111.666H99.8096V110.957H106.416V111.666ZM100.658 111.172H99.8096V108.884H100.658V111.172ZM103.032 102.664C103.713 102.657 104.307 102.729 104.815 102.879C105.324 103.029 105.716 103.248 105.992 103.534C106.267 103.821 106.405 104.161 106.405 104.555C106.405 104.949 106.267 105.287 105.992 105.57C105.716 105.853 105.324 106.071 104.815 106.225C104.307 106.379 103.713 106.456 103.032 106.456C102.345 106.456 101.747 106.379 101.238 106.225C100.73 106.071 100.338 105.853 100.062 105.57C99.7863 105.287 99.6484 104.949 99.6484 104.555C99.6484 104.161 99.7863 103.821 100.062 103.534C100.338 103.248 100.73 103.029 101.238 102.879C101.747 102.729 102.345 102.657 103.032 102.664ZM103.032 103.341C102.524 103.341 102.08 103.389 101.7 103.486C101.321 103.583 101.029 103.722 100.825 103.905C100.621 104.087 100.519 104.304 100.519 104.555C100.519 104.798 100.621 105.011 100.825 105.194C101.029 105.376 101.321 105.518 101.7 105.618C102.08 105.718 102.524 105.769 103.032 105.769C103.541 105.769 103.985 105.718 104.364 105.618C104.744 105.518 105.036 105.376 105.24 105.194C105.444 105.011 105.546 104.798 105.546 104.555C105.546 104.304 105.444 104.087 105.24 103.905C105.036 103.722 104.744 103.583 104.364 103.486C103.985 103.389 103.541 103.341 103.032 103.341ZM118.587 111.741H112.013V109.013H118.587V111.741ZM112.851 111.086H117.76V109.668H112.851V111.086ZM119.146 103.781H111.4V103.126H119.146V103.781ZM115.3 104.168C116.302 104.175 117.069 104.292 117.599 104.517C118.129 104.743 118.394 105.077 118.394 105.521C118.394 105.965 118.129 106.302 117.599 106.531C117.069 106.76 116.302 106.875 115.3 106.875C114.304 106.875 113.538 106.76 113.001 106.531C112.464 106.302 112.195 105.965 112.195 105.521C112.195 105.077 112.464 104.743 113.001 104.517C113.538 104.292 114.304 104.175 115.3 104.168ZM115.3 104.759C114.827 104.759 114.426 104.789 114.097 104.85C113.767 104.911 113.518 104.997 113.35 105.108C113.182 105.219 113.098 105.357 113.098 105.521C113.098 105.679 113.184 105.815 113.355 105.93C113.527 106.044 113.778 106.132 114.107 106.193C114.437 106.254 114.834 106.284 115.3 106.284C115.765 106.284 116.163 106.254 116.492 106.193C116.822 106.132 117.072 106.044 117.244 105.93C117.416 105.815 117.502 105.679 117.502 105.521C117.502 105.357 117.416 105.219 117.244 105.108C117.072 104.997 116.823 104.911 116.498 104.85C116.172 104.789 115.772 104.759 115.3 104.759ZM115.719 103.556H114.881V102.181H115.719V103.556ZM119.65 108.282H110.949V107.605H119.65V108.282ZM115.719 107.992H114.881V106.66H115.719V107.992ZM128.674 111.87H127.857V102.32H128.674V111.87ZM126.278 106.714H124.667V105.951H126.278V106.714ZM126.805 111.365H125.999V102.557H126.805V111.365ZM124.946 104.243H120.553V103.545H124.946V104.243ZM120.349 108.787C121.179 108.787 122.026 108.771 122.889 108.739C123.752 108.707 124.509 108.647 125.161 108.562L125.215 109.185C124.549 109.306 123.795 109.39 122.954 109.437C122.112 109.484 121.28 109.507 120.456 109.507L120.349 108.787ZM122.132 109.002H121.358V103.985H122.132V109.002ZM124.141 109.002H123.356V103.985H124.141V109.002ZM137.837 111.892H136.988V102.32H137.837V111.892ZM132.756 103.062C133.229 103.062 133.649 103.199 134.018 103.475C134.387 103.751 134.675 104.139 134.883 104.641C135.09 105.142 135.194 105.726 135.194 106.392C135.194 107.058 135.09 107.641 134.883 108.143C134.675 108.644 134.387 109.031 134.018 109.303C133.649 109.575 133.229 109.711 132.756 109.711C132.283 109.711 131.862 109.575 131.494 109.303C131.125 109.031 130.837 108.644 130.629 108.143C130.421 107.641 130.317 107.058 130.317 106.392C130.317 105.726 130.421 105.142 130.629 104.641C130.837 104.139 131.125 103.751 131.494 103.475C131.862 103.199 132.283 103.062 132.756 103.062ZM132.756 103.813C132.441 103.813 132.16 103.921 131.913 104.136C131.666 104.351 131.474 104.651 131.338 105.038C131.202 105.425 131.134 105.876 131.134 106.392C131.134 106.9 131.202 107.349 131.338 107.74C131.474 108.13 131.666 108.431 131.913 108.642C132.16 108.853 132.441 108.959 132.756 108.959C133.071 108.959 133.352 108.853 133.599 108.642C133.846 108.431 134.038 108.13 134.174 107.74C134.31 107.349 134.378 106.9 134.378 106.392C134.378 105.876 134.31 105.425 134.174 105.038C134.038 104.651 133.848 104.351 133.604 104.136C133.361 103.921 133.078 103.813 132.756 103.813ZM142.735 105.253C142.735 105.905 142.61 106.551 142.359 107.192C142.109 107.833 141.774 108.404 141.355 108.905C140.936 109.407 140.476 109.783 139.975 110.033L139.47 109.367C139.921 109.145 140.343 108.814 140.737 108.374C141.131 107.933 141.446 107.437 141.683 106.886C141.919 106.334 142.037 105.79 142.037 105.253V103.674H142.735V105.253ZM142.886 105.253C142.886 105.776 143.002 106.299 143.235 106.821C143.468 107.344 143.783 107.808 144.18 108.212C144.578 108.617 145.009 108.923 145.475 109.131L145.002 109.797C144.486 109.561 144.015 109.21 143.589 108.744C143.163 108.279 142.827 107.742 142.58 107.133C142.333 106.524 142.209 105.897 142.209 105.253V103.674H142.886V105.253ZM145.163 104.007H139.781V103.309H145.163V104.007ZM147.344 111.87H146.495V102.32H147.344V111.87ZM154.853 104.308C154.853 104.845 154.74 105.346 154.514 105.812C154.289 106.277 153.972 106.68 153.563 107.02C153.155 107.36 152.686 107.616 152.156 107.788L151.737 107.122C152.21 106.979 152.631 106.766 153 106.483C153.368 106.2 153.655 105.871 153.859 105.495C154.063 105.119 154.165 104.723 154.165 104.308V103.899H154.853V104.308ZM154.992 104.308C154.992 104.694 155.092 105.061 155.293 105.409C155.493 105.756 155.773 106.062 156.131 106.327C156.489 106.592 156.901 106.796 157.366 106.939L156.969 107.605C156.439 107.441 155.973 107.195 155.572 106.87C155.171 106.544 154.86 106.161 154.638 105.72C154.416 105.28 154.305 104.809 154.305 104.308V103.899H154.992V104.308ZM157.151 104.136H152.006V103.459H157.151V104.136ZM155.014 103.728H154.165V102.277H155.014V103.728ZM159.203 107.981H158.365V102.32H159.203V107.981ZM160.643 105.457H158.967V104.748H160.643V105.457ZM159.203 111.741H153.177V108.422H159.203V111.741ZM154.004 111.054H158.365V109.088H154.004V111.054ZM168.377 103.985H162.168V103.287H168.377V103.985ZM169.945 110.517H161.244V109.818H169.945V110.517ZM165.487 110.184H164.66V106.402H165.487V110.184ZM168.903 104.243C168.903 104.809 168.896 105.28 168.882 105.656C168.868 106.032 168.835 106.476 168.785 106.988C168.735 107.5 168.656 108.053 168.549 108.647L167.689 108.551C167.804 107.985 167.888 107.451 167.942 106.95C167.996 106.449 168.028 106.003 168.039 105.613C168.049 105.222 168.055 104.766 168.055 104.243V103.287H168.903V104.243Z" fill="#A6AAB3"/>
<path d="M48 112.756H170.364V113.503H48V112.756Z" fill="#A6AAB3"/>
<path d="M265.109 122.377C233.491 116.581 252.139 70.2147 260.706 57.3631C260.706 60.135 262.117 66.082 262.722 66.6868C262.722 60.387 263.226 54.8432 269.778 49.0474C269.778 53.3312 270.786 56.1031 273.306 57.3631C273.306 47.2834 279.606 38.7157 289.685 30.4C294.725 37.7078 300.017 48.5434 299.009 56.1031C301.781 52.8272 302.285 51.0633 302.285 45.2675C308.333 49.0474 311.861 53.8352 312.113 68.9547C313.002 67.4428 316.396 65.4268 316.396 60.135C319.672 63.6629 340.084 110.533 310.719 121.873C307.073 128.929 295.985 126.409 294.592 123.637C291.165 123.637 284.26 122.965 281.236 122.629C280.11 129.181 268.133 127.669 265.109 122.377Z" fill="#5F9B45"/>
<path d="M292.359 98.8931L292.863 97.8851" stroke="#2CD74B" stroke-width="1.00797" stroke-linecap="round"/>
<path d="M292.359 98.8931L292.863 97.8851" stroke="#2CD74B" stroke-width="1.00797" stroke-linecap="round"/>
<path d="M292.359 98.8931L292.863 97.8851" stroke="#58DF71" stroke-width="1.00797" stroke-linecap="round"/>
<path d="M278.247 97.4434L278.831 98.3589" stroke="#2CD74B" stroke-width="1.00797" stroke-linecap="round"/>
<path d="M278.247 97.4434L278.831 98.3589" stroke="#2CD74B" stroke-width="1.00797" stroke-linecap="round"/>
<path d="M278.247 97.4434L278.831 98.3589" stroke="#2CD74B" stroke-width="1.00797" stroke-linecap="round"/>
<path d="M277.61 96.0208L277.239 95.888" stroke="#2CD74B" stroke-width="1.00797" stroke-linecap="round"/>
<path d="M277.61 96.0208L277.239 95.888" stroke="#2CD74B" stroke-width="1.00797" stroke-linecap="round"/>
<path d="M277.61 96.0208L277.239 95.888" stroke="#0CBB2C" stroke-width="1.00797" stroke-linecap="round"/>
<path d="M287.615 99.3971L287.08 100.342" stroke="#2CD74B" stroke-width="1.00797" stroke-linecap="round"/>
<path d="M287.615 99.3971L287.08 100.342" stroke="#2CD74B" stroke-width="1.00797" stroke-linecap="round"/>
<path d="M287.615 99.3971L287.08 100.342" stroke="#25C141" stroke-width="1.00797" stroke-linecap="round"/>
<path d="M285.628 99.4795L285.303 99.7024" stroke="#2CD74B" stroke-width="1.00797" stroke-linecap="round"/>
<path d="M285.628 99.4795L285.303 99.7024" stroke="#2CD74B" stroke-width="1.00797" stroke-linecap="round"/>
<path d="M285.628 99.4795L285.303 99.7024" stroke="#0CBB2C" stroke-width="1.00797" stroke-linecap="round"/>
<path d="M295.102 97.8154L294.374 97.6613" stroke="#2CD74B" stroke-width="1.00797" stroke-linecap="round"/>
<path d="M295.102 97.8154L294.374 97.6613" stroke="#45BE5B" stroke-width="1.00797" stroke-linecap="round"/>
<path d="M295.102 97.8154L294.374 97.6613" stroke="#25C141" stroke-width="1.00797" stroke-linecap="round"/>
<path d="M279.848 95.8264C282.279 93.6013 284.114 96.6541 286.311 96.6252C288.583 96.5952 290.847 93.8532 292.931 95.9731" stroke="black" stroke-width="2.51992" stroke-linecap="round"/>
<circle cx="268.077" cy="93.7628" r="8.56771" transform="rotate(-15 268.077 93.7628)" fill="#F8FAF5"/>
<circle cx="304.584" cy="94.6769" r="8.31572" transform="rotate(-15 304.584 94.6769)" fill="#F8FAF5"/>
<circle cx="304.584" cy="94.6769" r="5.03983" transform="rotate(-15 304.584 94.6769)" fill="black"/>
<circle cx="268.077" cy="93.7629" r="5.03983" transform="rotate(-15 268.077 93.7629)" fill="black"/>
</svg>
