<svg width="375" height="160" viewBox="0 0 375 160" fill="none" xmlns="http://www.w3.org/2000/svg">
<rect width="375" height="160" fill="#1F2127"/>
<ellipse cx="82.5351" cy="123.932" rx="27.4272" ry="6.06796" fill="#001307" fill-opacity="0.7"/>
<path d="M60.562 118.592C34.7367 113.35 46.4844 68.8349 56.1931 56.4563C56.1931 59.1262 57.6807 64.8544 58.2633 65.4369C58.2633 59.3689 61.904 54.2718 57.7778 47.233C61.904 46.7476 66.273 51.6019 68.4574 56.4563C69.4283 46.7476 77.438 38.7379 84.2341 30.4854C86.1759 38.9806 93.0206 45.5825 92.2439 56.4563C94.671 51.6019 96.3701 50.3883 96.3701 44.8058C99.5254 51.6019 105.593 53.0582 105.836 67.6214C106.693 66.165 106.322 58.6408 112.147 58.6408C108.021 68.3495 132.778 107.67 104.494 118.592C96.3386 130.049 90.7399 124.498 88.96 120.291C85.659 120.291 79.0086 119.644 76.0959 119.32C73.7658 130.388 63.4746 123.689 60.562 118.592Z" fill="#5F9B45"/>
<path d="M78.0832 98.9875C75.763 98.7731 74.5254 94.0777 76.2244 92.6214L81.3224 92.9492C79.137 94.5631 80.4034 99.2019 78.0832 98.9875Z" fill="#F63051"/>
<path d="M74.6109 93.0657C77.9234 92.1359 83.7486 93.3495 87.2128 93.2069" stroke="black" stroke-width="2.42718" stroke-linecap="round"/>
<circle cx="63.2733" cy="91.078" r="8.25243" transform="rotate(-15 63.2733 91.078)" fill="#F8FAF5"/>
<circle cx="98.4372" cy="91.9583" r="8.00971" transform="rotate(-15 98.4372 91.9583)" fill="#F8FAF5"/>
<circle cx="98.4371" cy="91.9583" r="4.85437" transform="rotate(-15 98.4371 91.9583)" fill="black"/>
<circle cx="63.2732" cy="91.078" r="4.85437" transform="rotate(-15 63.2732 91.078)" fill="black"/>
<path d="M154.579 64.7676H152.079V47.0039H154.579V64.7676ZM157.089 55.8906H153.934V53.8398H157.089V55.8906ZM149.833 48.8398C149.833 50.6953 149.569 52.4076 149.042 53.9766C148.514 55.5391 147.655 56.9779 146.464 58.293C145.272 59.6016 143.71 60.7344 141.776 61.6914L140.37 59.7871C141.965 58.9798 143.277 58.0684 144.305 57.0527C145.341 56.0371 146.112 54.8913 146.62 53.6152C147.134 52.3392 147.391 50.8971 147.391 49.2891V48.8398H149.833ZM148.641 50.8809H141.366V48.8398H148.641V50.8809ZM173.691 57.7949H157.45V55.8027H173.691V57.7949ZM171.913 54.3477H159.413V52.3555H171.913V54.3477ZM171.737 49.6504H161.894V53.0879H159.413V47.668H171.737V49.6504ZM172.001 64.4648H159.403V62.4629H172.001V64.4648ZM161.855 62.9902H159.403V59.1719H161.855V62.9902ZM183.212 49.3574C183.212 50.6465 182.91 51.8542 182.304 52.9805C181.699 54.1068 180.836 55.0703 179.716 55.8711C178.603 56.6654 177.298 57.2122 175.8 57.5117L174.736 55.4414C176.012 55.2005 177.125 54.7676 178.076 54.1426C179.033 53.5176 179.762 52.7852 180.263 51.9453C180.771 51.1055 181.025 50.2428 181.025 49.3574V48.0879H183.212V49.3574ZM183.671 49.3574C183.671 50.2493 183.922 51.1185 184.423 51.9648C184.931 52.8112 185.664 53.5469 186.621 54.1719C187.584 54.7904 188.71 55.2135 190 55.4414L188.906 57.5117C187.421 57.2122 186.119 56.6686 185 55.8809C183.886 55.0931 183.03 54.1361 182.431 53.0098C181.832 51.8835 181.533 50.666 181.533 49.3574V48.0879H183.671V49.3574ZM190.585 62.6191H174.335V60.5781H190.585V62.6191ZM206.484 57.0332H204.111V47.0039H206.484V57.0332ZM201.562 53.0293H198.779V51.0371H201.562V53.0293ZM202.969 56.9062H200.625V47.2969H202.969V56.9062ZM193.125 54.6211C194.499 54.6211 195.638 54.5918 196.543 54.5332C197.448 54.4746 198.366 54.3704 199.297 54.2207L199.541 56.1836C198.603 56.3529 197.685 56.4635 196.787 56.5156C195.895 56.5612 194.674 56.584 193.125 56.584H191.924V54.6211H193.125ZM198.691 49.9434H194.307V55.9492H191.924V47.9805H198.691V49.9434ZM198.027 53.166H193.594V51.252H198.027V53.166ZM196.807 59.2012H204.014V57.7363H206.484V64.6016H194.336V57.7363H196.807V59.2012ZM204.014 62.5996V61.1348H196.807V62.5996H204.014ZM216.592 50.793H208.877V48.8008H216.592V50.793ZM213.662 59.9238H211.211V53.8887H213.662V59.9238ZM218.086 50.2168C218.08 51.0566 218.07 51.7728 218.057 52.3652C218.044 52.9512 218.002 53.651 217.93 54.4648C217.858 55.2721 217.751 56.1315 217.608 57.043L215.157 56.8379C215.352 55.5618 215.476 54.4355 215.528 53.459C215.58 52.4759 215.606 51.3952 215.606 50.2168V48.8008H218.086V50.2168ZM222.168 64.7969H219.658V47.0039H222.168V64.7969ZM224.58 56.2422H221.426V54.1621H224.58V56.2422ZM207.94 59.1816C210.186 59.1621 212.168 59.1198 213.887 59.0547C215.612 58.9831 217.256 58.8496 218.819 58.6543L218.965 60.5C217.325 60.7734 215.602 60.9557 213.799 61.0469C212.002 61.138 210.13 61.1771 208.184 61.1641L207.94 59.1816ZM243.312 57.7461H240.821V47.0039H243.312V57.7461ZM245.714 53.4785H242.608V51.4082H245.714V53.4785ZM243.312 64.6016H231.691V58.5273H243.312V64.6016ZM234.161 62.5996H240.851V60.4805H234.161V62.5996ZM239.757 50.6074H229.2V48.6348H239.757V50.6074ZM234.493 51.1348C235.346 51.1348 236.101 51.2715 236.759 51.5449C237.423 51.8118 237.941 52.1862 238.312 52.668C238.683 53.1497 238.868 53.7064 238.868 54.3379C238.868 54.9694 238.683 55.5293 238.312 56.0176C237.941 56.4993 237.423 56.877 236.759 57.1504C236.101 57.4173 235.346 57.5508 234.493 57.5508C233.627 57.5508 232.859 57.4173 232.189 57.1504C231.524 56.877 231.007 56.4993 230.636 56.0176C230.265 55.5293 230.079 54.9694 230.079 54.3379C230.079 53.7064 230.265 53.1497 230.636 52.668C231.007 52.1862 231.524 51.8118 232.189 51.5449C232.859 51.2715 233.627 51.1348 234.493 51.1348ZM234.493 53.0098C234.09 53.0098 233.738 53.0618 233.439 53.166C233.139 53.2637 232.908 53.4134 232.745 53.6152C232.582 53.8105 232.501 54.0514 232.501 54.3379C232.501 54.6309 232.582 54.8815 232.745 55.0898C232.908 55.2917 233.139 55.4447 233.439 55.5488C233.738 55.653 234.09 55.7083 234.493 55.7148C234.897 55.7083 235.248 55.653 235.548 55.5488C235.847 55.4447 236.082 55.2917 236.251 55.0898C236.42 54.8815 236.505 54.6309 236.505 54.3379C236.505 54.0514 236.417 53.8105 236.241 53.6152C236.072 53.4134 235.838 53.2637 235.538 53.166C235.239 53.0618 234.89 53.0098 234.493 53.0098ZM235.733 49.6992H233.243V46.916H235.733V49.6992ZM250.47 49.0645C250.47 50.6986 250.395 52.1862 250.246 53.5273C250.096 54.8685 249.822 56.1673 249.425 57.4238C249.035 58.6803 248.478 59.8717 247.755 60.998L245.822 59.9727C246.518 58.931 247.046 57.8698 247.404 56.7891C247.768 55.7083 248.016 54.582 248.146 53.4102C248.283 52.2383 248.351 50.8613 248.351 49.2793V49.0645H250.47ZM249.679 51.0664H246.408V49.0645H249.679V51.0664ZM254.445 49.0645C254.445 50.8678 254.386 52.4694 254.269 53.8691C254.152 55.2624 253.895 56.6458 253.498 58.0195C253.1 59.3932 252.514 60.679 251.74 61.877L249.845 60.8418C250.574 59.722 251.118 58.5632 251.476 57.3652C251.834 56.1673 252.069 54.9596 252.179 53.7422C252.29 52.5182 252.345 51.0306 252.345 49.2793V49.0645H254.445ZM253.742 51.0664H250.988V49.0645H253.742V51.0664ZM261.652 64.7969H259.259V47.0039H261.652V64.7969ZM256.183 55.6855H253.585V53.6934H256.183V55.6855ZM258.136 64.0156H255.802V47.4238H258.136V64.0156ZM277.004 64.7969H274.543V47.0039H277.004V64.7969ZM279.641 56.0273H276.457V53.9863H279.641V56.0273ZM273.332 51.6719H262.892V49.6699H273.332V51.6719ZM268.156 52.6582C269.022 52.6582 269.8 52.8405 270.49 53.2051C271.18 53.5632 271.721 54.0645 272.111 54.709C272.508 55.3535 272.707 56.0827 272.707 56.8965C272.707 57.7103 272.508 58.4395 272.111 59.084C271.721 59.7285 271.18 60.2331 270.49 60.5977C269.8 60.9557 269.022 61.1348 268.156 61.1348C267.29 61.1348 266.512 60.9557 265.822 60.5977C265.132 60.2331 264.592 59.7285 264.201 59.084C263.81 58.4395 263.615 57.7103 263.615 56.8965C263.615 56.0827 263.81 55.3535 264.201 54.709C264.592 54.0645 265.132 53.5632 265.822 53.2051C266.512 52.8405 267.29 52.6582 268.156 52.6582ZM268.156 54.6895C267.746 54.6895 267.375 54.7806 267.043 54.9629C266.717 55.1387 266.46 55.3958 266.271 55.7344C266.089 56.0664 265.998 56.4538 265.998 56.8965C265.998 57.3457 266.089 57.7363 266.271 58.0684C266.46 58.4004 266.717 58.6576 267.043 58.8398C267.375 59.0156 267.746 59.1035 268.156 59.1035C268.579 59.1035 268.954 59.0156 269.279 58.8398C269.605 58.6576 269.855 58.4004 270.031 58.0684C270.213 57.7363 270.305 57.3457 270.305 56.8965C270.305 56.4538 270.213 56.0664 270.031 55.7344C269.855 55.3958 269.605 55.1387 269.279 54.9629C268.954 54.7806 268.579 54.6895 268.156 54.6895ZM269.396 50.4316H266.916V47.2871H269.396V50.4316ZM294.309 53.8203H281.877V51.877H294.309V53.8203ZM296.106 57.6777H279.856V55.7246H296.106V57.6777ZM284.367 52.8535H281.877V47.6484H284.367V52.8535ZM294.416 64.4062H281.721V62.3945H294.416V64.4062ZM284.221 62.9707H281.721V59.1328H284.221V62.9707ZM155.887 88.7969H153.485V71.0039H155.887V88.7969ZM154.139 79.9102H151.122V77.8887H154.139V79.9102ZM151.825 87.9375H149.491V71.3262H151.825V87.9375ZM143.768 83.2598H141.278V72.9961H143.768V83.2598ZM142.469 82.3027C143.498 82.3027 144.501 82.2637 145.477 82.1855C146.454 82.1074 147.453 81.974 148.475 81.7852L148.739 83.9336C147.619 84.1224 146.545 84.2591 145.516 84.3438C144.494 84.4219 143.479 84.4609 142.469 84.4609H141.278V82.3027H142.469ZM169.677 82.0977C170.979 82.0977 172.102 82.2279 173.046 82.4883C173.997 82.7487 174.729 83.1328 175.244 83.6406C175.764 84.1419 176.025 84.7474 176.025 85.457C176.025 86.1471 175.764 86.7428 175.244 87.2441C174.729 87.7454 173.994 88.1296 173.037 88.3965C172.086 88.6634 170.966 88.7969 169.677 88.7969C168.401 88.7969 167.288 88.6634 166.337 88.3965C165.387 88.1296 164.651 87.7454 164.13 87.2441C163.61 86.7428 163.349 86.1471 163.349 85.457C163.349 84.7539 163.606 84.1484 164.121 83.6406C164.635 83.1328 165.367 82.7487 166.318 82.4883C167.275 82.2279 168.395 82.0977 169.677 82.0977ZM169.677 83.9434C168.857 83.9434 168.16 84.002 167.587 84.1191C167.021 84.2298 166.585 84.3991 166.279 84.627C165.979 84.8483 165.83 85.125 165.83 85.457C165.83 85.776 165.979 86.043 166.279 86.2578C166.585 86.4727 167.021 86.6354 167.587 86.7461C168.16 86.8503 168.857 86.9023 169.677 86.9023C170.504 86.9023 171.204 86.8503 171.777 86.7461C172.35 86.6354 172.786 86.4694 173.085 86.248C173.391 86.0267 173.544 85.763 173.544 85.457C173.544 85.125 173.391 84.8483 173.085 84.627C172.786 84.3991 172.35 84.2298 171.777 84.1191C171.204 84.002 170.504 83.9434 169.677 83.9434ZM174.873 73.7773H163.525V71.8145H174.873V73.7773ZM177.851 80.9746H161.708V78.9629H177.851V80.9746ZM170.224 79.5H167.753V75.8477H170.224V79.5ZM175.937 73.2695C175.937 74.2331 175.908 75.0664 175.849 75.7695C175.797 76.4661 175.657 77.2214 175.429 78.0352L172.978 77.791C173.186 76.9707 173.313 76.2448 173.359 75.6133C173.411 74.9818 173.44 74.2005 173.447 73.2695V71.8145H175.937V73.2695ZM192.656 83.7578H190.127V71.0039H192.656V83.7578ZM195.058 78.0547H191.933V76.0039H195.058V78.0547ZM187.803 72.3418C187.803 73.9368 187.48 75.3691 186.836 76.6387C186.191 77.9082 185.247 78.9987 184.004 79.9102C182.767 80.8151 181.256 81.5215 179.473 82.0293L178.428 80.0566C179.886 79.653 181.113 79.1257 182.109 78.4746C183.112 77.8236 183.864 77.0814 184.365 76.248C184.873 75.4147 185.127 74.526 185.127 73.582V72.3418H187.803ZM186.514 74.3828H179.209V72.3418H186.514V74.3828ZM193.262 88.4941H181.094V86.4824H193.262V88.4941ZM183.613 87.3809H181.094V82.459H183.613V87.3809ZM205.586 79.5879H202.617V77.5957H205.586V79.5879ZM210.85 88.7969H208.457V71.0039H210.85V88.7969ZM207.149 87.9766H204.795V71.2773H207.149V87.9766ZM199.463 72.2832C200.251 72.2832 200.941 72.5436 201.533 73.0645C202.126 73.5788 202.582 74.321 202.901 75.291C203.226 76.2611 203.389 77.4036 203.389 78.7188C203.389 80.0273 203.226 81.1699 202.901 82.1465C202.582 83.1165 202.126 83.8652 201.533 84.3926C200.941 84.9134 200.251 85.1771 199.463 85.1836C198.682 85.1771 197.998 84.9134 197.412 84.3926C196.826 83.8652 196.374 83.1165 196.055 82.1465C195.742 81.1699 195.586 80.0273 195.586 78.7188C195.586 77.3971 195.742 76.2546 196.055 75.291C196.374 74.321 196.826 73.5788 197.412 73.0645C198.005 72.5436 198.688 72.2832 199.463 72.2832ZM199.463 74.6465C199.125 74.64 198.838 74.7897 198.604 75.0957C198.369 75.4017 198.19 75.8574 198.067 76.4629C197.95 77.0684 197.891 77.8203 197.891 78.7188C197.891 79.6107 197.95 80.3626 198.067 80.9746C198.19 81.5866 198.369 82.0423 198.604 82.3418C198.845 82.6413 199.131 82.791 199.463 82.791C199.808 82.791 200.101 82.6413 200.342 82.3418C200.583 82.0423 200.769 81.5866 200.899 80.9746C201.029 80.3626 201.094 79.6107 201.094 78.7188C201.094 77.8203 201.029 77.0684 200.899 76.4629C200.769 75.8574 200.583 75.4017 200.342 75.0957C200.101 74.7897 199.808 74.64 199.463 74.6465ZM225.616 79.9785H217.081V72.166H225.616V79.9785ZM219.552 77.9961H223.165V74.1484H219.552V77.9961ZM230.655 80.9844H228.165V71.0039H230.655V80.9844ZM233.058 76.9219H229.952V74.8809H233.058V76.9219ZM225.655 83.1621C225.655 84.0996 225.398 84.9525 224.884 85.7207C224.37 86.4889 223.614 87.1367 222.618 87.6641C221.629 88.1914 220.437 88.543 219.044 88.7188L218.136 86.834C219.321 86.6842 220.32 86.4238 221.134 86.0527C221.954 85.6751 222.563 85.2389 222.96 84.7441C223.364 84.2428 223.566 83.7155 223.566 83.1621V82.7227H225.655V83.1621ZM226.232 83.1621C226.232 83.696 226.433 84.2135 226.837 84.7148C227.247 85.2161 227.859 85.6589 228.673 86.043C229.493 86.4271 230.486 86.6973 231.651 86.8535L230.773 88.7578C229.373 88.569 228.168 88.2077 227.159 87.6738C226.157 87.1465 225.395 86.4954 224.874 85.7207C224.353 84.9395 224.093 84.0866 224.093 83.1621V82.7227H226.232V83.1621ZM230.88 83.7969H218.898V81.8145H230.88V83.7969ZM247.882 77.8203H235.451V75.877H247.882V77.8203ZM249.679 81.6777H233.429V79.7246H249.679V81.6777ZM237.941 76.8535H235.451V71.6484H237.941V76.8535ZM247.99 88.4062H235.294V86.3945H247.99V88.4062ZM237.794 86.9707H235.294V83.1328H237.794V86.9707ZM260.852 73.543C260.852 74.6888 260.66 75.763 260.276 76.7656C259.892 77.7617 259.315 78.6309 258.547 79.373C257.785 80.1152 256.848 80.6686 255.735 81.0332L254.494 79.0801C255.451 78.7676 256.252 78.3249 256.897 77.752C257.541 77.179 258.017 76.5312 258.323 75.8086C258.629 75.0794 258.782 74.3242 258.782 73.543V71.834H260.852V73.543ZM261.369 73.543C261.369 74.3177 261.516 75.0469 261.809 75.7305C262.102 76.4141 262.561 77.026 263.186 77.5664C263.817 78.1003 264.602 78.5072 265.539 78.7871L264.309 80.75C263.202 80.3984 262.274 79.8711 261.526 79.168C260.777 78.4583 260.214 77.625 259.836 76.668C259.465 75.7109 259.28 74.6693 259.28 73.543V71.834H261.369V73.543ZM269.426 88.7969H266.936V84.3926H257.219V82.3906H269.426V88.7969ZM269.426 81.6289H266.936V71.0039H269.426V81.6289ZM280.764 82.0391H278.264V79.5391H280.764V82.0391ZM287.659 80.0469H271.448V78.084H287.659V80.0469ZM285.598 77.1465H273.44V71.541H285.598V77.1465ZM275.891 75.2129H283.108V73.4746H275.891V75.2129ZM285.676 85.7402H275.774V87.3711H273.323V83.9824H283.216V83.0547H273.313V81.1797H285.676V85.7402ZM286.145 88.6699H273.323V86.8047H286.145V88.6699ZM298.617 74.6367C298.617 75.6654 298.428 76.6191 298.05 77.498C297.679 78.3704 297.116 79.1322 296.361 79.7832C295.612 80.4277 294.688 80.903 293.587 81.209L292.406 79.2559C293.337 79.0085 294.118 78.6504 294.749 78.1816C295.388 77.7064 295.86 77.166 296.166 76.5605C296.472 75.9486 296.624 75.3073 296.624 74.6367V73.9531H298.617V74.6367ZM299.095 74.6367C299.095 75.2487 299.245 75.8411 299.544 76.4141C299.85 76.9805 300.316 77.4883 300.941 77.9375C301.566 78.3867 302.341 78.735 303.265 78.9824L302.162 80.877C301.048 80.597 300.108 80.151 299.339 79.5391C298.578 78.9206 298.008 78.1947 297.63 77.3613C297.259 76.5215 297.074 75.6133 297.074 74.6367V73.9531H299.095V74.6367ZM302.679 74.7051H293.041V72.7422H302.679V74.7051ZM299.124 73.6602H296.624V70.9453H299.124V73.6602ZM306.654 81.1504H304.164V71.0039H306.654V81.1504ZM309.056 77.0586H305.951V75.0078H309.056V77.0586ZM301.654 83.1621C301.654 84.0996 301.393 84.9525 300.873 85.7207C300.358 86.4824 299.606 87.1237 298.617 87.6445C297.627 88.1719 296.436 88.5299 295.042 88.7188L294.134 86.834C295.313 86.6842 296.309 86.4238 297.123 86.0527C297.943 85.6751 298.555 85.2389 298.958 84.7441C299.362 84.2428 299.564 83.7155 299.564 83.1621V82.7227H301.654V83.1621ZM302.23 83.1621C302.23 83.696 302.432 84.2135 302.835 84.7148C303.246 85.2161 303.858 85.6589 304.671 86.043C305.492 86.4271 306.485 86.6973 307.65 86.8535L306.771 88.7578C305.371 88.569 304.167 88.2077 303.158 87.6738C302.155 87.1465 301.393 86.4954 300.873 85.7207C300.352 84.9395 300.091 84.0866 300.091 83.1621V82.7227H302.23V83.1621ZM306.878 83.8652H294.896V81.9121H306.878V83.8652ZM324.379 88.7969H321.85V71.0039H324.379V88.7969ZM319.057 72.8789C319.057 74.7865 318.799 76.5182 318.285 78.0742C317.777 79.6237 316.915 81.0495 315.697 82.3516C314.48 83.6471 312.849 84.7799 310.805 85.75L309.496 83.7578C311.208 82.9505 312.582 82.0423 313.617 81.0332C314.652 80.0241 315.404 78.8913 315.873 77.6348C316.342 76.3783 316.576 74.9395 316.576 73.3184V72.8789H319.057ZM317.719 74.8418H310.443V72.8789H317.719V74.8418ZM330.102 82.7715H327.612L327.348 72.8594H330.375L330.102 82.7715ZM328.862 87.1758C328.569 87.1758 328.295 87.1009 328.041 86.9512C327.787 86.7949 327.586 86.5931 327.436 86.3457C327.293 86.0918 327.221 85.8184 327.221 85.5254C327.221 85.2389 327.293 84.972 327.436 84.7246C327.586 84.4707 327.787 84.2721 328.041 84.1289C328.295 83.9857 328.569 83.9141 328.862 83.9141C329.148 83.9141 329.415 83.9857 329.662 84.1289C329.916 84.2721 330.118 84.4707 330.268 84.7246C330.424 84.972 330.502 85.2389 330.502 85.5254C330.502 85.8184 330.424 86.0918 330.268 86.3457C330.118 86.5931 329.916 86.7949 329.662 86.9512C329.415 87.1009 329.148 87.1758 328.862 87.1758Z" fill="#F3F4F6"/>
<path d="M144.676 104.686C144.676 105.515 144.517 106.338 144.198 107.153C143.879 107.969 143.453 108.696 142.92 109.334C142.386 109.972 141.801 110.451 141.163 110.77L140.52 109.922C141.094 109.639 141.632 109.218 142.133 108.657C142.635 108.097 143.036 107.465 143.337 106.764C143.637 106.062 143.788 105.369 143.788 104.686V102.676H144.676V104.686ZM144.868 104.686C144.868 105.351 145.016 106.016 145.312 106.682C145.608 107.347 146.009 107.937 146.515 108.452C147.021 108.967 147.57 109.357 148.163 109.621L147.561 110.469C146.905 110.168 146.306 109.721 145.763 109.129C145.221 108.536 144.793 107.853 144.478 107.078C144.164 106.303 144.007 105.506 144.007 104.686V102.676H144.868V104.686ZM147.766 103.1H140.917V102.211H147.766V103.1ZM150.542 113.107H149.462V100.953H150.542V113.107ZM161.93 102.498H154.028V101.609H161.93V102.498ZM163.749 106.969H152.62V106.08H163.749V106.969ZM162.286 102.512C162.286 103.214 162.263 103.854 162.217 104.433C162.172 105.011 162.063 105.674 161.889 106.422L160.823 106.354C160.951 105.834 161.042 105.349 161.096 104.897C161.151 104.446 161.185 104.05 161.199 103.708C161.213 103.366 161.219 102.967 161.219 102.512V101.609H162.286V102.512ZM162.341 112.943H153.987V108.65H162.341V112.943ZM155.053 112.068H161.274V109.498H155.053V112.068ZM177.639 113.107H176.573V100.953H177.639V113.107ZM179.676 106.668H177.393V105.738H179.676V106.668ZM169.805 105.205H173.36V101.992H174.426V110.195H168.739V101.992H169.805V105.205ZM173.36 109.293V106.066H169.805V109.293H173.36ZM191.462 111.604H180.333V110.701H191.462V111.604ZM186.389 111.098H185.337V108.09H186.389V111.098ZM190.053 105.533H182.794V107.994H181.727V104.658H189.001V102.744H181.7V101.855H190.053V105.533ZM190.341 108.404H181.727V107.516H190.341V108.404ZM199.911 103.496C199.911 104.171 199.767 104.802 199.48 105.39C199.193 105.978 198.79 106.486 198.27 106.914C197.751 107.342 197.154 107.666 196.479 107.885L195.946 107.037C196.548 106.855 197.083 106.586 197.552 106.23C198.022 105.875 198.386 105.46 198.646 104.986C198.906 104.512 199.036 104.016 199.036 103.496V102.963H199.911V103.496ZM200.089 103.496C200.089 103.97 200.216 104.428 200.471 104.87C200.727 105.312 201.082 105.702 201.538 106.039C201.994 106.376 202.518 106.636 203.11 106.818L202.604 107.639C201.939 107.438 201.349 107.133 200.834 106.723C200.319 106.312 199.92 105.829 199.637 105.273C199.355 104.717 199.214 104.125 199.214 103.496V102.963H200.089V103.496ZM202.837 103.264H196.288V102.375H202.837V103.264ZM200.116 102.744H199.036V100.898H200.116V102.744ZM205.448 108.021H204.382V100.953H205.448V108.021ZM207.28 104.863H205.147V103.961H207.28V104.863ZM202.003 109.348C202.003 109.958 201.802 110.519 201.401 111.029C201 111.54 200.465 111.968 199.795 112.314C199.125 112.661 198.389 112.907 197.587 113.053L197.176 112.232C197.869 112.123 198.516 111.927 199.118 111.645C199.719 111.362 200.2 111.02 200.56 110.619C200.92 110.218 201.1 109.794 201.1 109.348V109.006H202.003V109.348ZM202.208 109.348C202.208 109.785 202.39 110.204 202.755 110.605C203.119 111.007 203.602 111.351 204.204 111.638C204.805 111.925 205.448 112.123 206.132 112.232L205.735 113.066C204.933 112.93 204.192 112.686 203.513 112.335C202.834 111.984 202.292 111.549 201.886 111.029C201.481 110.51 201.278 109.949 201.278 109.348V109.006H202.208V109.348ZM205.667 109.553H197.655V108.678H205.667V109.553ZM211.299 101.896C211.901 101.896 212.432 102.072 212.892 102.423C213.353 102.774 213.715 103.268 213.979 103.906C214.244 104.544 214.376 105.287 214.376 106.135C214.376 106.982 214.244 107.725 213.979 108.363C213.715 109.001 213.35 109.493 212.885 109.84C212.421 110.186 211.892 110.359 211.299 110.359C210.707 110.359 210.178 110.186 209.714 109.84C209.249 109.493 208.886 109.001 208.627 108.363C208.367 107.725 208.237 106.982 208.237 106.135C208.237 105.287 208.367 104.544 208.627 103.906C208.886 103.268 209.249 102.774 209.714 102.423C210.178 102.072 210.707 101.896 211.299 101.896ZM211.299 102.854C210.898 102.854 210.543 102.99 210.233 103.264C209.923 103.537 209.682 103.92 209.508 104.412C209.335 104.904 209.249 105.479 209.249 106.135C209.249 106.782 209.335 107.354 209.508 107.851C209.682 108.347 209.925 108.73 210.24 108.999C210.554 109.268 210.908 109.402 211.299 109.402C211.701 109.402 212.056 109.268 212.366 108.999C212.676 108.73 212.915 108.347 213.084 107.851C213.252 107.354 213.337 106.782 213.337 106.135C213.337 105.479 213.252 104.904 213.084 104.412C212.915 103.92 212.676 103.537 212.366 103.264C212.056 102.99 211.701 102.854 211.299 102.854ZM217.452 113.107H216.385V100.953H217.452V113.107ZM219.489 106.736H217.206V105.807H219.489V106.736ZM231.274 111.549H220.145V110.66H231.274V111.549ZM226.202 110.934H225.149V107.721H226.202V110.934ZM222.538 104.016H228.854V101.814H229.907V108.035H221.458V101.814H222.538V104.016ZM228.854 107.16V104.891H222.538V107.16H228.854ZM242.294 113.107H241.214V100.953H242.294V113.107ZM238.698 102.279C238.698 103.482 238.5 104.608 238.103 105.656C237.707 106.704 237.085 107.668 236.237 108.548C235.389 109.427 234.305 110.186 232.983 110.824L232.395 109.949C233.571 109.393 234.546 108.739 235.321 107.987C236.096 107.235 236.674 106.395 237.057 105.465C237.44 104.535 237.632 103.528 237.632 102.443V102.279H238.698ZM238.069 103.154H232.956V102.279H238.069V103.154Z" fill="#A6AAB3"/>
<path d="M140.028 114.235H243.852V115.186H140.028V114.235Z" fill="#A6AAB3"/>
</svg>
