<svg width="160" height="199" viewBox="0 0 160 199" fill="none" xmlns="http://www.w3.org/2000/svg">
    <path d="M36.524 184.962C-26.7111 173.37 10.5837 80.6373 27.7191 54.9342C27.7191 60.478 30.5414 72.372 31.751 73.5816C31.751 60.982 32.7589 49.8944 45.8625 38.3027C45.8625 46.8705 47.8784 52.4143 52.9182 54.9342C52.9182 34.7749 65.5179 17.6394 85.6772 1.008C95.7569 15.6235 106.34 37.2948 104.325 52.4143C109.868 45.8625 110.876 42.3346 110.876 30.743C122.972 38.3027 130.028 47.8784 130.532 78.1174C132.31 75.0935 139.099 71.0616 139.099 60.478C145.651 67.5338 186.474 161.275 127.745 183.954C120.452 198.065 98.2767 193.026 95.49 187.482C88.6358 187.482 74.8267 186.138 68.7789 185.466C66.5258 198.569 42.5717 195.545 36.524 184.962Z" fill="#5F9B45"/>
    <path d="M90.717 137.083L91.7249 135.068" stroke="#2CD74B" stroke-width="2.01593" stroke-linecap="round"/>
    <path d="M90.717 137.083L91.7249 135.068" stroke="#2CD74B" stroke-width="2.01593" stroke-linecap="round"/>
    <path d="M90.717 137.083L91.7249 135.068" stroke="#58DF71" stroke-width="2.01593" stroke-linecap="round"/>
    <path d="M62.4939 134.184L63.6629 136.015" stroke="#2CD74B" stroke-width="2.01593" stroke-linecap="round"/>
    <path d="M62.4939 134.184L63.6629 136.015" stroke="#2CD74B" stroke-width="2.01593" stroke-linecap="round"/>
    <path d="M62.4939 134.184L63.6629 136.015" stroke="#2CD74B" stroke-width="2.01593" stroke-linecap="round"/>
    <path d="M61.2198 131.339L60.478 131.073" stroke="#2CD74B" stroke-width="2.01593" stroke-linecap="round"/>
    <path d="M61.2198 131.339L60.478 131.073" stroke="#2CD74B" stroke-width="2.01593" stroke-linecap="round"/>
    <path d="M61.2198 131.339L60.478 131.073" stroke="#0CBB2C" stroke-width="2.01593" stroke-linecap="round"/>
    <path d="M81.2302 138.091L80.1598 139.982" stroke="#2CD74B" stroke-width="2.01593" stroke-linecap="round"/>
    <path d="M81.2302 138.091L80.1598 139.982" stroke="#2CD74B" stroke-width="2.01593" stroke-linecap="round"/>
    <path d="M81.2302 138.091L80.1598 139.982" stroke="#25C141" stroke-width="2.01593" stroke-linecap="round"/>
    <path d="M77.2553 138.256L76.6054 138.702" stroke="#2CD74B" stroke-width="2.01593" stroke-linecap="round"/>
    <path d="M77.2553 138.256L76.6054 138.702" stroke="#2CD74B" stroke-width="2.01593" stroke-linecap="round"/>
    <path d="M77.2553 138.256L76.6054 138.702" stroke="#0CBB2C" stroke-width="2.01593" stroke-linecap="round"/>
    <path d="M96.2038 134.928L94.7488 134.62" stroke="#2CD74B" stroke-width="2.01593" stroke-linecap="round"/>
    <path d="M96.2038 134.928L94.7488 134.62" stroke="#45BE5B" stroke-width="2.01593" stroke-linecap="round"/>
    <path d="M96.2038 134.928L94.7488 134.62" stroke="#25C141" stroke-width="2.01593" stroke-linecap="round"/>
    <path d="M65.6954 130.95C70.5577 126.5 74.229 132.606 78.6214 132.548C83.166 132.488 87.6931 127.004 91.8621 131.243" stroke="black" stroke-width="5.03983" stroke-linecap="round"/>
    <circle cx="42.1538" cy="126.823" r="17.1354" transform="rotate(-15 42.1538 126.823)" fill="#F8FAF5"/>
    <circle cx="115.169" cy="128.651" r="16.6314" transform="rotate(-15 115.169 128.651)" fill="#F8FAF5"/>
    <circle cx="115.169" cy="128.651" r="10.0797" transform="rotate(-15 115.169 128.651)" fill="black"/>
    <circle cx="42.1538" cy="126.823" r="10.0797" transform="rotate(-15 42.1538 126.823)" fill="black"/>
</svg>
