<svg width="160" height="210" viewBox="0 0 160 210" fill="none" xmlns="http://www.w3.org/2000/svg">
    <ellipse cx="81.3763" cy="194.226" rx="68.4277" ry="15.0943" fill="#001307" fill-opacity="0.7"/>
    <path d="M36.4632 183.648C-26.6666 172.075 14.0881 65.4088 19.1195 47.7988C22.6415 53.8365 30.4905 72.2516 31.6981 73.4591C31.6981 60.8805 35.2201 52.3271 39.7484 36.2264C45.7862 45.283 47.7988 52.3271 52.8302 54.8428C52.8302 34.717 72.4528 18.1132 85.5346 1.00632C89.5597 19.1195 106.164 37.2327 104.151 52.3271C109.686 45.7862 113.208 40.7547 122.264 30.6918C124.78 48.8051 129.811 47.7988 130.314 77.9874C132.09 74.9686 139.371 68.4277 142.893 61.3837C145.912 74.4654 186.164 161.006 127.532 183.648C110.627 207.396 99.0208 195.891 95.3311 187.17C88.4883 187.17 74.7022 185.828 68.6644 185.157C63.8342 208.101 42.5009 194.214 36.4632 183.648Z" fill="#5F9B45"/>
    <circle cx="42.0837" cy="126.612" r="17.1069" transform="rotate(-15 42.0837 126.612)" fill="#F8FAF5"/>
    <circle cx="114.977" cy="128.437" r="16.6038" transform="rotate(-15 114.977 128.437)" fill="#F8FAF5"/>
    <path d="M65.4648 134.032C70.8261 134.134 83.9135 134.563 93.3725 135.469" stroke="black" stroke-width="5.81412" stroke-linecap="round"/>
    <circle cx="115.362" cy="128.443" r="6.27781" transform="rotate(-15 115.362 128.443)" fill="black"/>
    <circle cx="41.9026" cy="126.431" r="6.27781" transform="rotate(-15 41.9026 126.431)" fill="black"/>
</svg>
