<svg width="160" height="199" viewBox="0 0 160 199" fill="none" xmlns="http://www.w3.org/2000/svg">
    <path d="M36.524 183.954C-17.0998 173.068 7.29312 80.6373 27.4524 54.9342C27.4524 60.478 30.5414 72.372 31.7509 73.5816C31.7509 60.982 39.3107 50.3983 30.743 35.7828C39.3107 34.7749 48.3824 44.8545 52.9182 54.9342C54.9342 34.7749 71.5656 18.1434 85.6771 1.008C89.709 18.6474 103.921 32.3557 102.309 54.9342C107.348 44.8545 110.876 42.3346 110.876 30.743C117.428 44.8545 130.028 47.8784 130.532 78.1174C132.31 75.0935 131.54 59.47 143.635 59.47C135.067 79.6294 186.474 161.275 127.745 183.954C110.811 207.742 99.1858 196.217 95.49 187.482C88.6358 187.482 74.8267 186.138 68.7789 185.466C63.9406 208.447 42.5717 194.538 36.524 183.954Z" fill="#5F9B45"/>
    <path d="M72.9053 143.246C68.0876 142.801 65.5178 133.052 69.0457 130.028L79.6312 130.709C75.0936 134.06 77.723 143.692 72.9053 143.246Z" fill="#F63051"/>
    <path d="M65.6955 130.95C72.5736 129.02 84.6692 131.54 91.8622 131.244" stroke="black" stroke-width="5.03983" stroke-linecap="round"/>
    <circle cx="42.1538" cy="126.823" r="17.1354" transform="rotate(-15 42.1538 126.823)" fill="#F8FAF5"/>
    <circle cx="115.168" cy="128.651" r="16.6314" transform="rotate(-15 115.168 128.651)" fill="#F8FAF5"/>
    <circle cx="115.169" cy="128.651" r="10.0797" transform="rotate(-15 115.169 128.651)" fill="black"/>
    <circle cx="42.1538" cy="126.823" r="10.0797" transform="rotate(-15 42.1538 126.823)" fill="black"/>
</svg>
